<?xml version="1.0" encoding="UTF-8" standalone="no"?>
<!DOCTYPE svg PUBLIC "-//W3C//DTD SVG 1.1//EN"
 "http://www.w3.org/Graphics/SVG/1.1/DTD/svg11.dtd">
<!-- Generated by graphviz version 5.0.0 (20220707.1540)
 -->
<!-- Title: dependencies Pages: 1 -->
<svg width="4771pt" height="247pt"
 viewBox="0.00 0.00 4771.00 246.80" xmlns="http://www.w3.org/2000/svg" xmlns:xlink="http://www.w3.org/1999/xlink">
<g id="graph0" class="graph" transform="scale(1 1) rotate(0) translate(4 242.8)">
<title>dependencies</title>
<polygon fill="white" stroke="transparent" points="-4,4 -4,-242.8 4767,-242.8 4767,4 -4,4"/>
<text text-anchor="middle" x="2381.5" y="-8.2" font-family="sans-serif" font-size="14.00">dependencies</text>
<g id="clust1" class="cluster">
<title>cluster_AppModule</title>
<polygon fill="none" stroke="black" stroke-dasharray="1,5" points="8,-32.8 8,-230.8 4755,-230.8 4755,-32.8 8,-32.8"/>
</g>
<g id="clust2" class="cluster">
<title>cluster_AppModule_declarations</title>
<polygon fill="none" stroke="black" points="326,-40.8 326,-92.8 4747,-92.8 4747,-40.8 326,-40.8"/>
</g>
<g id="clust31" class="cluster">
<title>cluster_AppModule_imports</title>
<polygon fill="none" stroke="black" points="174,-40.8 174,-92.8 318,-92.8 318,-40.8 174,-40.8"/>
</g>
<g id="clust33" class="cluster">
<title>cluster_AppModule_bootstrap</title>
<polygon fill="none" stroke="black" points="2393,-170.8 2393,-222.8 2517,-222.8 2517,-170.8 2393,-170.8"/>
</g>
<g id="clust34" class="cluster">
<title>cluster_AppModule_providers</title>
<polygon fill="none" stroke="black" points="16,-40.8 16,-92.8 166,-92.8 166,-40.8 16,-40.8"/>
</g>
<!-- AboutUsComponent -->
<g id="node1" class="node">
<title>AboutUsComponent</title>
<polygon fill="#ffffb3" stroke="black" points="4738.89,-84.8 4607.11,-84.8 4607.11,-48.8 4738.89,-48.8 4738.89,-84.8"/>
<text text-anchor="middle" x="4673" y="-62.6" font-family="Times,serif" font-size="14.00">AboutUsComponent</text>
</g>
<!-- AppModule -->
<g id="node29" class="node">
<title>AppModule</title>
<polygon fill="#8dd3c7" stroke="black" points="2496.66,-149.8 2493.66,-153.8 2472.66,-153.8 2469.66,-149.8 2413.34,-149.8 2413.34,-113.8 2496.66,-113.8 2496.66,-149.8"/>
<text text-anchor="middle" x="2455" y="-127.6" font-family="Times,serif" font-size="14.00">AppModule</text>
</g>
<!-- AboutUsComponent&#45;&gt;AppModule -->
<g id="edge1" class="edge">
<title>AboutUsComponent&#45;&gt;AppModule</title>
<path fill="none" stroke="black" d="M4673,-85.18C4673,-109.08 4673,-147.8 4673,-147.8 4673,-147.8 2506.84,-147.8 2506.84,-147.8"/>
<polygon fill="black" stroke="black" points="2506.84,-144.3 2496.84,-147.8 2506.84,-151.3 2506.84,-144.3"/>
</g>
<!-- AddAuthorComponent -->
<g id="node2" class="node">
<title>AddAuthorComponent</title>
<polygon fill="#ffffb3" stroke="black" points="4589.6,-84.8 4444.4,-84.8 4444.4,-48.8 4589.6,-48.8 4589.6,-84.8"/>
<text text-anchor="middle" x="4517" y="-62.6" font-family="Times,serif" font-size="14.00">AddAuthorComponent</text>
</g>
<!-- AddAuthorComponent&#45;&gt;AppModule -->
<g id="edge2" class="edge">
<title>AddAuthorComponent&#45;&gt;AppModule</title>
<path fill="none" stroke="black" d="M4517,-85.12C4517,-108.46 4517,-145.8 4517,-145.8 4517,-145.8 2507.12,-145.8 2507.12,-145.8"/>
<polygon fill="black" stroke="black" points="2507.12,-142.3 2497.12,-145.8 2507.12,-149.3 2507.12,-142.3"/>
</g>
<!-- AddBookComponent -->
<g id="node3" class="node">
<title>AddBookComponent</title>
<polygon fill="#ffffb3" stroke="black" points="4426.78,-84.8 4291.22,-84.8 4291.22,-48.8 4426.78,-48.8 4426.78,-84.8"/>
<text text-anchor="middle" x="4359" y="-62.6" font-family="Times,serif" font-size="14.00">AddBookComponent</text>
</g>
<!-- AddBookComponent&#45;&gt;AppModule -->
<g id="edge3" class="edge">
<title>AddBookComponent&#45;&gt;AppModule</title>
<path fill="none" stroke="black" d="M4359,-85.05C4359,-107.82 4359,-143.8 4359,-143.8 4359,-143.8 2506.99,-143.8 2506.99,-143.8"/>
<polygon fill="black" stroke="black" points="2506.99,-140.3 2496.99,-143.8 2506.99,-147.3 2506.99,-140.3"/>
</g>
<!-- AdminComponent -->
<g id="node4" class="node">
<title>AdminComponent</title>
<polygon fill="#ffffb3" stroke="black" points="4273.22,-84.8 4152.78,-84.8 4152.78,-48.8 4273.22,-48.8 4273.22,-84.8"/>
<text text-anchor="middle" x="4213" y="-62.6" font-family="Times,serif" font-size="14.00">AdminComponent</text>
</g>
<!-- AdminComponent&#45;&gt;AppModule -->
<g id="edge4" class="edge">
<title>AdminComponent&#45;&gt;AppModule</title>
<path fill="none" stroke="black" d="M4213,-85.09C4213,-107.01 4213,-140.8 4213,-140.8 4213,-140.8 2506.72,-140.8 2506.72,-140.8"/>
<polygon fill="black" stroke="black" points="2506.72,-137.3 2496.72,-140.8 2506.72,-144.3 2506.72,-137.3"/>
</g>
<!-- AppComponent -->
<g id="node5" class="node">
<title>AppComponent</title>
<polygon fill="#ffffb3" stroke="black" points="4134.94,-84.8 4029.06,-84.8 4029.06,-48.8 4134.94,-48.8 4134.94,-84.8"/>
<text text-anchor="middle" x="4082" y="-62.6" font-family="Times,serif" font-size="14.00">AppComponent</text>
</g>
<!-- AppComponent&#45;&gt;AppModule -->
<g id="edge5" class="edge">
<title>AppComponent&#45;&gt;AppModule</title>
<path fill="none" stroke="black" d="M4082,-84.97C4082,-106.3 4082,-138.8 4082,-138.8 4082,-138.8 2506.85,-138.8 2506.85,-138.8"/>
<polygon fill="black" stroke="black" points="2506.85,-135.3 2496.85,-138.8 2506.85,-142.3 2506.85,-135.3"/>
</g>
<!-- AuthorDetailsComponent -->
<g id="node6" class="node">
<title>AuthorDetailsComponent</title>
<polygon fill="#ffffb3" stroke="black" points="4011.15,-84.8 3850.85,-84.8 3850.85,-48.8 4011.15,-48.8 4011.15,-84.8"/>
<text text-anchor="middle" x="3931" y="-62.6" font-family="Times,serif" font-size="14.00">AuthorDetailsComponent</text>
</g>
<!-- AuthorDetailsComponent&#45;&gt;AppModule -->
<g id="edge6" class="edge">
<title>AuthorDetailsComponent&#45;&gt;AppModule</title>
<path fill="none" stroke="black" d="M3931,-84.83C3931,-105.57 3931,-136.8 3931,-136.8 3931,-136.8 2506.8,-136.8 2506.8,-136.8"/>
<polygon fill="black" stroke="black" points="2506.8,-133.3 2496.8,-136.8 2506.8,-140.3 2506.8,-133.3"/>
</g>
<!-- AuthorListComponent -->
<g id="node7" class="node">
<title>AuthorListComponent</title>
<polygon fill="#ffffb3" stroke="black" points="3832.27,-84.8 3689.73,-84.8 3689.73,-48.8 3832.27,-48.8 3832.27,-84.8"/>
<text text-anchor="middle" x="3761" y="-62.6" font-family="Times,serif" font-size="14.00">AuthorListComponent</text>
</g>
<!-- AuthorListComponent&#45;&gt;AppModule -->
<g id="edge7" class="edge">
<title>AuthorListComponent&#45;&gt;AppModule</title>
<path fill="none" stroke="black" d="M3737.2,-84.91C3737.2,-104.14 3737.2,-131.8 3737.2,-131.8 3737.2,-131.8 2506.93,-131.8 2506.93,-131.8"/>
<polygon fill="black" stroke="black" points="2506.93,-128.3 2496.93,-131.8 2506.93,-135.3 2506.93,-128.3"/>
</g>
<!-- AuthorListComponent&#45;&gt;AppModule -->
<g id="edge8" class="edge">
<title>AuthorListComponent&#45;&gt;AppModule</title>
<path fill="none" stroke="black" d="M3784.8,-85.02C3784.8,-105.17 3784.8,-134.8 3784.8,-134.8 3784.8,-134.8 2506.99,-134.8 2506.99,-134.8"/>
<polygon fill="black" stroke="black" points="2506.99,-131.3 2496.99,-134.8 2506.99,-138.3 2506.99,-131.3"/>
</g>
<!-- AuthorsListComponentComponent -->
<g id="node8" class="node">
<title>AuthorsListComponentComponent</title>
<polygon fill="#ffffb3" stroke="black" points="3671.55,-84.8 3458.45,-84.8 3458.45,-48.8 3671.55,-48.8 3671.55,-84.8"/>
<text text-anchor="middle" x="3565" y="-62.6" font-family="Times,serif" font-size="14.00">AuthorsListComponentComponent</text>
</g>
<!-- AuthorsListComponentComponent&#45;&gt;AppModule -->
<g id="edge9" class="edge">
<title>AuthorsListComponentComponent&#45;&gt;AppModule</title>
<path fill="none" stroke="black" d="M3565,-85.02C3565,-103.63 3565,-129.8 3565,-129.8 3565,-129.8 2506.82,-129.8 2506.82,-129.8"/>
<polygon fill="black" stroke="black" points="2506.82,-126.3 2496.82,-129.8 2506.82,-133.3 2506.82,-126.3"/>
</g>
<!-- BookComponent -->
<g id="node9" class="node">
<title>BookComponent</title>
<polygon fill="#ffffb3" stroke="black" points="3439.67,-84.8 3328.33,-84.8 3328.33,-48.8 3439.67,-48.8 3439.67,-84.8"/>
<text text-anchor="middle" x="3384" y="-62.6" font-family="Times,serif" font-size="14.00">BookComponent</text>
</g>
<!-- BookComponent&#45;&gt;AppModule -->
<g id="edge10" class="edge">
<title>BookComponent&#45;&gt;AppModule</title>
<path fill="none" stroke="black" d="M3384,-85.1C3384,-103.07 3384,-127.8 3384,-127.8 3384,-127.8 2506.72,-127.8 2506.72,-127.8"/>
<polygon fill="black" stroke="black" points="2506.72,-124.3 2496.72,-127.8 2506.72,-131.3 2506.72,-124.3"/>
</g>
<!-- BookDetailsComponent -->
<g id="node10" class="node">
<title>BookDetailsComponent</title>
<polygon fill="#ffffb3" stroke="black" points="3310.82,-84.8 3159.18,-84.8 3159.18,-48.8 3310.82,-48.8 3310.82,-84.8"/>
<text text-anchor="middle" x="3235" y="-62.6" font-family="Times,serif" font-size="14.00">BookDetailsComponent</text>
</g>
<!-- BookDetailsComponent&#45;&gt;AppModule -->
<g id="edge11" class="edge">
<title>BookDetailsComponent&#45;&gt;AppModule</title>
<path fill="none" stroke="black" d="M3235,-84.82C3235,-102.17 3235,-125.8 3235,-125.8 3235,-125.8 2506.94,-125.8 2506.94,-125.8"/>
<polygon fill="black" stroke="black" points="2506.94,-122.3 2496.94,-125.8 2506.94,-129.3 2506.94,-122.3"/>
</g>
<!-- BookShelfComponent -->
<g id="node11" class="node">
<title>BookShelfComponent</title>
<polygon fill="#ffffb3" stroke="black" points="3141.72,-84.8 3000.28,-84.8 3000.28,-48.8 3141.72,-48.8 3141.72,-84.8"/>
<text text-anchor="middle" x="3071" y="-62.6" font-family="Times,serif" font-size="14.00">BookShelfComponent</text>
</g>
<!-- BookShelfComponent&#45;&gt;AppModule -->
<g id="edge12" class="edge">
<title>BookShelfComponent&#45;&gt;AppModule</title>
<path fill="none" stroke="black" d="M3071,-84.83C3071,-101.2 3071,-122.8 3071,-122.8 3071,-122.8 2506.86,-122.8 2506.86,-122.8"/>
<polygon fill="black" stroke="black" points="2506.86,-119.3 2496.86,-122.8 2506.86,-126.3 2506.86,-119.3"/>
</g>
<!-- BooksComponent -->
<g id="node12" class="node">
<title>BooksComponent</title>
<polygon fill="#ffffb3" stroke="black" points="2982.62,-84.8 2865.38,-84.8 2865.38,-48.8 2982.62,-48.8 2982.62,-84.8"/>
<text text-anchor="middle" x="2924" y="-62.6" font-family="Times,serif" font-size="14.00">BooksComponent</text>
</g>
<!-- BooksComponent&#45;&gt;AppModule -->
<g id="edge13" class="edge">
<title>BooksComponent&#45;&gt;AppModule</title>
<path fill="none" stroke="black" d="M2924,-85.08C2924,-100.75 2924,-120.8 2924,-120.8 2924,-120.8 2507.03,-120.8 2507.03,-120.8"/>
<polygon fill="black" stroke="black" points="2507.03,-117.3 2497.03,-120.8 2507.03,-124.3 2507.03,-117.3"/>
</g>
<!-- CategoriesComponent -->
<g id="node13" class="node">
<title>CategoriesComponent</title>
<polygon fill="#ffffb3" stroke="black" points="2847.7,-84.8 2706.3,-84.8 2706.3,-48.8 2847.7,-48.8 2847.7,-84.8"/>
<text text-anchor="middle" x="2777" y="-62.6" font-family="Times,serif" font-size="14.00">CategoriesComponent</text>
</g>
<!-- CategoriesComponent&#45;&gt;AppModule -->
<g id="edge14" class="edge">
<title>CategoriesComponent&#45;&gt;AppModule</title>
<path fill="none" stroke="black" d="M2777,-84.99C2777,-99.98 2777,-118.8 2777,-118.8 2777,-118.8 2506.77,-118.8 2506.77,-118.8"/>
<polygon fill="black" stroke="black" points="2506.77,-115.3 2496.77,-118.8 2506.77,-122.3 2506.77,-115.3"/>
</g>
<!-- EditAuthorComponent -->
<g id="node14" class="node">
<title>EditAuthorComponent</title>
<polygon fill="#ffffb3" stroke="black" points="2688.32,-84.8 2543.68,-84.8 2543.68,-48.8 2688.32,-48.8 2688.32,-84.8"/>
<text text-anchor="middle" x="2616" y="-62.6" font-family="Times,serif" font-size="14.00">EditAuthorComponent</text>
</g>
<!-- EditAuthorComponent&#45;&gt;AppModule -->
<g id="edge15" class="edge">
<title>EditAuthorComponent&#45;&gt;AppModule</title>
<path fill="none" stroke="black" d="M2616,-84.85C2616,-99.17 2616,-116.8 2616,-116.8 2616,-116.8 2506.88,-116.8 2506.88,-116.8"/>
<polygon fill="black" stroke="black" points="2506.88,-113.3 2496.88,-116.8 2506.88,-120.3 2506.88,-113.3"/>
</g>
<!-- EditBookComponent1 -->
<g id="node15" class="node">
<title>EditBookComponent1</title>
<polygon fill="#ffffb3" stroke="black" points="2526,-84.8 2384,-84.8 2384,-48.8 2526,-48.8 2526,-84.8"/>
<text text-anchor="middle" x="2455" y="-62.6" font-family="Times,serif" font-size="14.00">EditBookComponent1</text>
</g>
<!-- EditBookComponent1&#45;&gt;AppModule -->
<g id="edge16" class="edge">
<title>EditBookComponent1&#45;&gt;AppModule</title>
<path fill="none" stroke="black" d="M2455,-84.91C2455,-84.91 2455,-103.79 2455,-103.79"/>
<polygon fill="black" stroke="black" points="2451.5,-103.79 2455,-113.79 2458.5,-103.79 2451.5,-103.79"/>
</g>
<!-- FooterComponent -->
<g id="node16" class="node">
<title>FooterComponent</title>
<polygon fill="#ffffb3" stroke="black" points="2365.88,-84.8 2248.12,-84.8 2248.12,-48.8 2365.88,-48.8 2365.88,-84.8"/>
<text text-anchor="middle" x="2307" y="-62.6" font-family="Times,serif" font-size="14.00">FooterComponent</text>
</g>
<!-- FooterComponent&#45;&gt;AppModule -->
<g id="edge17" class="edge">
<title>FooterComponent&#45;&gt;AppModule</title>
<path fill="none" stroke="black" d="M2307,-84.85C2307,-99.17 2307,-116.8 2307,-116.8 2307,-116.8 2402.99,-116.8 2402.99,-116.8"/>
<polygon fill="black" stroke="black" points="2402.99,-120.3 2412.99,-116.8 2402.98,-113.3 2402.99,-120.3"/>
</g>
<!-- GetCategoryByIdComponent -->
<g id="node17" class="node">
<title>GetCategoryByIdComponent</title>
<polygon fill="#ffffb3" stroke="black" points="2230.36,-84.8 2049.64,-84.8 2049.64,-48.8 2230.36,-48.8 2230.36,-84.8"/>
<text text-anchor="middle" x="2140" y="-62.6" font-family="Times,serif" font-size="14.00">GetCategoryByIdComponent</text>
</g>
<!-- GetCategoryByIdComponent&#45;&gt;AppModule -->
<g id="edge18" class="edge">
<title>GetCategoryByIdComponent&#45;&gt;AppModule</title>
<path fill="none" stroke="black" d="M2140,-84.99C2140,-99.98 2140,-118.8 2140,-118.8 2140,-118.8 2403.17,-118.8 2403.17,-118.8"/>
<polygon fill="black" stroke="black" points="2403.17,-122.3 2413.17,-118.8 2403.17,-115.3 2403.17,-122.3"/>
</g>
<!-- GetCategouryComponent -->
<g id="node18" class="node">
<title>GetCategouryComponent</title>
<polygon fill="#ffffb3" stroke="black" points="2031.86,-84.8 1872.14,-84.8 1872.14,-48.8 2031.86,-48.8 2031.86,-84.8"/>
<text text-anchor="middle" x="1952" y="-62.6" font-family="Times,serif" font-size="14.00">GetCategouryComponent</text>
</g>
<!-- GetCategouryComponent&#45;&gt;AppModule -->
<g id="edge19" class="edge">
<title>GetCategouryComponent&#45;&gt;AppModule</title>
<path fill="none" stroke="black" d="M1952,-85.08C1952,-100.75 1952,-120.8 1952,-120.8 1952,-120.8 2402.98,-120.8 2402.98,-120.8"/>
<polygon fill="black" stroke="black" points="2402.98,-124.3 2412.98,-120.8 2402.98,-117.3 2402.98,-124.3"/>
</g>
<!-- HomePageComponent -->
<g id="node19" class="node">
<title>HomePageComponent</title>
<polygon fill="#ffffb3" stroke="black" points="1854.26,-84.8 1711.74,-84.8 1711.74,-48.8 1854.26,-48.8 1854.26,-84.8"/>
<text text-anchor="middle" x="1783" y="-62.6" font-family="Times,serif" font-size="14.00">HomePageComponent</text>
</g>
<!-- HomePageComponent&#45;&gt;AppModule -->
<g id="edge20" class="edge">
<title>HomePageComponent&#45;&gt;AppModule</title>
<path fill="none" stroke="black" d="M1783,-84.83C1783,-101.2 1783,-122.8 1783,-122.8 1783,-122.8 2403.22,-122.8 2403.22,-122.8"/>
<polygon fill="black" stroke="black" points="2403.22,-126.3 2413.22,-122.8 2403.22,-119.3 2403.22,-126.3"/>
</g>
<!-- LoginComponent -->
<g id="node20" class="node">
<title>LoginComponent</title>
<polygon fill="#ffffb3" stroke="black" points="1693.27,-84.8 1578.73,-84.8 1578.73,-48.8 1693.27,-48.8 1693.27,-84.8"/>
<text text-anchor="middle" x="1636" y="-62.6" font-family="Times,serif" font-size="14.00">LoginComponent</text>
</g>
<!-- LoginComponent&#45;&gt;AppModule -->
<g id="edge21" class="edge">
<title>LoginComponent&#45;&gt;AppModule</title>
<path fill="none" stroke="black" d="M1636,-84.82C1636,-102.17 1636,-125.8 1636,-125.8 1636,-125.8 2403.26,-125.8 2403.26,-125.8"/>
<polygon fill="black" stroke="black" points="2403.26,-129.3 2413.26,-125.8 2403.26,-122.3 2403.26,-129.3"/>
</g>
<!-- LoginRedirectDialogComponent -->
<g id="node21" class="node">
<title>LoginRedirectDialogComponent</title>
<polygon fill="#ffffb3" stroke="black" points="1560.3,-84.8 1359.7,-84.8 1359.7,-48.8 1560.3,-48.8 1560.3,-84.8"/>
<text text-anchor="middle" x="1460" y="-62.6" font-family="Times,serif" font-size="14.00">LoginRedirectDialogComponent</text>
</g>
<!-- LoginRedirectDialogComponent&#45;&gt;AppModule -->
<g id="edge22" class="edge">
<title>LoginRedirectDialogComponent&#45;&gt;AppModule</title>
<path fill="none" stroke="black" d="M1460,-85.1C1460,-103.07 1460,-127.8 1460,-127.8 1460,-127.8 2403.2,-127.8 2403.2,-127.8"/>
<polygon fill="black" stroke="black" points="2403.2,-131.3 2413.2,-127.8 2403.2,-124.3 2403.2,-131.3"/>
</g>
<!-- NavbarComponent -->
<g id="node22" class="node">
<title>NavbarComponent</title>
<polygon fill="#ffffb3" stroke="black" points="1342.03,-84.8 1219.97,-84.8 1219.97,-48.8 1342.03,-48.8 1342.03,-84.8"/>
<text text-anchor="middle" x="1281" y="-62.6" font-family="Times,serif" font-size="14.00">NavbarComponent</text>
</g>
<!-- NavbarComponent&#45;&gt;AppModule -->
<g id="edge23" class="edge">
<title>NavbarComponent&#45;&gt;AppModule</title>
<path fill="none" stroke="black" d="M1281,-85.02C1281,-103.63 1281,-129.8 1281,-129.8 1281,-129.8 2403.22,-129.8 2403.22,-129.8"/>
<polygon fill="black" stroke="black" points="2403.22,-133.3 2413.22,-129.8 2403.22,-126.3 2403.22,-133.3"/>
</g>
<!-- NotFoundComponent -->
<g id="node23" class="node">
<title>NotFoundComponent</title>
<polygon fill="#ffffb3" stroke="black" points="1202.12,-84.8 1063.88,-84.8 1063.88,-48.8 1202.12,-48.8 1202.12,-84.8"/>
<text text-anchor="middle" x="1133" y="-62.6" font-family="Times,serif" font-size="14.00">NotFoundComponent</text>
</g>
<!-- NotFoundComponent&#45;&gt;AppModule -->
<g id="edge24" class="edge">
<title>NotFoundComponent&#45;&gt;AppModule</title>
<path fill="none" stroke="black" d="M1133,-84.91C1133,-104.14 1133,-131.8 1133,-131.8 1133,-131.8 2403.25,-131.8 2403.25,-131.8"/>
<polygon fill="black" stroke="black" points="2403.25,-135.3 2413.25,-131.8 2403.25,-128.3 2403.25,-135.3"/>
</g>
<!-- ProfileComponent -->
<g id="node24" class="node">
<title>ProfileComponent</title>
<polygon fill="#ffffb3" stroke="black" points="1045.94,-84.8 926.06,-84.8 926.06,-48.8 1045.94,-48.8 1045.94,-84.8"/>
<text text-anchor="middle" x="986" y="-62.6" font-family="Times,serif" font-size="14.00">ProfileComponent</text>
</g>
<!-- ProfileComponent&#45;&gt;AppModule -->
<g id="edge25" class="edge">
<title>ProfileComponent&#45;&gt;AppModule</title>
<path fill="none" stroke="black" d="M986,-85.02C986,-105.17 986,-134.8 986,-134.8 986,-134.8 2403.01,-134.8 2403.01,-134.8"/>
<polygon fill="black" stroke="black" points="2403.01,-138.3 2413.01,-134.8 2403.01,-131.3 2403.01,-138.3"/>
</g>
<!-- RatingComponent -->
<g id="node25" class="node">
<title>RatingComponent</title>
<polygon fill="#ffffb3" stroke="black" points="908.16,-84.8 789.84,-84.8 789.84,-48.8 908.16,-48.8 908.16,-84.8"/>
<text text-anchor="middle" x="849" y="-62.6" font-family="Times,serif" font-size="14.00">RatingComponent</text>
</g>
<!-- RatingComponent&#45;&gt;AppModule -->
<g id="edge26" class="edge">
<title>RatingComponent&#45;&gt;AppModule</title>
<path fill="none" stroke="black" d="M849,-84.83C849,-105.57 849,-136.8 849,-136.8 849,-136.8 2403.28,-136.8 2403.28,-136.8"/>
<polygon fill="black" stroke="black" points="2403.28,-140.3 2413.28,-136.8 2403.28,-133.3 2403.28,-140.3"/>
</g>
<!-- RegisterComponent -->
<g id="node26" class="node">
<title>RegisterComponent</title>
<polygon fill="#ffffb3" stroke="black" points="771.99,-84.8 644.01,-84.8 644.01,-48.8 771.99,-48.8 771.99,-84.8"/>
<text text-anchor="middle" x="708" y="-62.6" font-family="Times,serif" font-size="14.00">RegisterComponent</text>
</g>
<!-- RegisterComponent&#45;&gt;AppModule -->
<g id="edge27" class="edge">
<title>RegisterComponent&#45;&gt;AppModule</title>
<path fill="none" stroke="black" d="M708,-84.97C708,-106.3 708,-138.8 708,-138.8 708,-138.8 2403.11,-138.8 2403.11,-138.8"/>
<polygon fill="black" stroke="black" points="2403.11,-142.3 2413.11,-138.8 2403.11,-135.3 2403.11,-142.3"/>
</g>
<!-- SpinnerComponent -->
<g id="node27" class="node">
<title>SpinnerComponent</title>
<polygon fill="#ffffb3" stroke="black" points="626.38,-84.8 501.62,-84.8 501.62,-48.8 626.38,-48.8 626.38,-84.8"/>
<text text-anchor="middle" x="564" y="-62.6" font-family="Times,serif" font-size="14.00">SpinnerComponent</text>
</g>
<!-- SpinnerComponent&#45;&gt;AppModule -->
<g id="edge28" class="edge">
<title>SpinnerComponent&#45;&gt;AppModule</title>
<path fill="none" stroke="black" d="M564,-85.09C564,-107.01 564,-140.8 564,-140.8 564,-140.8 2403.3,-140.8 2403.3,-140.8"/>
<polygon fill="black" stroke="black" points="2403.3,-144.3 2413.3,-140.8 2403.3,-137.3 2403.3,-144.3"/>
</g>
<!-- UserLibraryComponent -->
<g id="node28" class="node">
<title>UserLibraryComponent</title>
<polygon fill="#ffffb3" stroke="black" points="483.75,-84.8 334.25,-84.8 334.25,-48.8 483.75,-48.8 483.75,-84.8"/>
<text text-anchor="middle" x="409" y="-62.6" font-family="Times,serif" font-size="14.00">UserLibraryComponent</text>
</g>
<!-- UserLibraryComponent&#45;&gt;AppModule -->
<g id="edge29" class="edge">
<title>UserLibraryComponent&#45;&gt;AppModule</title>
<path fill="none" stroke="black" d="M409,-85.05C409,-107.82 409,-143.8 409,-143.8 409,-143.8 2403.2,-143.8 2403.2,-143.8"/>
<polygon fill="black" stroke="black" points="2403.2,-147.3 2413.2,-143.8 2403.2,-140.3 2403.2,-147.3"/>
</g>
<!-- AppComponent  -->
<g id="node31" class="node">
<title>AppComponent </title>
<polygon fill="#80b1d3" stroke="black" points="2509.44,-214.8 2400.56,-214.8 2400.56,-178.8 2509.44,-178.8 2509.44,-214.8"/>
<text text-anchor="middle" x="2455" y="-192.6" font-family="Times,serif" font-size="14.00">AppComponent </text>
</g>
<!-- AppModule&#45;&gt;AppComponent  -->
<g id="edge31" class="edge">
<title>AppModule&#45;&gt;AppComponent </title>
<path fill="none" stroke="black" stroke-dasharray="1,5" d="M2455,-149.91C2455,-149.91 2455,-168.79 2455,-168.79"/>
<polygon fill="black" stroke="black" points="2451.5,-168.79 2455,-178.79 2458.5,-168.79 2451.5,-168.79"/>
</g>
<!-- AppRoutingModule -->
<g id="node30" class="node">
<title>AppRoutingModule</title>
<polygon fill="#8dd3c7" stroke="black" points="310.28,-84.8 307.28,-88.8 286.28,-88.8 283.28,-84.8 181.72,-84.8 181.72,-48.8 310.28,-48.8 310.28,-84.8"/>
<text text-anchor="middle" x="246" y="-62.6" font-family="Times,serif" font-size="14.00">AppRoutingModule</text>
</g>
<!-- AppRoutingModule&#45;&gt;AppModule -->
<g id="edge30" class="edge">
<title>AppRoutingModule&#45;&gt;AppModule</title>
<path fill="none" stroke="black" d="M246,-85.12C246,-108.46 246,-145.8 246,-145.8 246,-145.8 2403.33,-145.8 2403.33,-145.8"/>
<polygon fill="black" stroke="black" points="2403.33,-149.3 2413.33,-145.8 2403.33,-142.3 2403.33,-149.3"/>
</g>
<!-- JwtInterceptor -->
<g id="node32" class="node">
<title>JwtInterceptor</title>
<ellipse fill="#fdb462" stroke="black" cx="91" cy="-66.8" rx="66.62" ry="18"/>
<text text-anchor="middle" x="91" y="-62.6" font-family="Times,serif" font-size="14.00">JwtInterceptor</text>
</g>
<!-- JwtInterceptor&#45;&gt;AppModule -->
<g id="edge32" class="edge">
<title>JwtInterceptor&#45;&gt;AppModule</title>
<path fill="none" stroke="black" d="M91,-85.18C91,-109.08 91,-147.8 91,-147.8 91,-147.8 2403.22,-147.8 2403.22,-147.8"/>
<polygon fill="black" stroke="black" points="2403.22,-151.3 2413.22,-147.8 2403.22,-144.3 2403.22,-151.3"/>
</g>
</g>
</svg>
